<svg width="16" height="20" viewBox="0 0 16 20" fill="none" xmlns="http://www.w3.org/2000/svg">
  <path
    d="M7.99996 20C6.55646 18.8032 5.21847 17.4911 3.99998 16.0775C2.17142 13.9546 1.00989e-06 10.793 1.00989e-06 7.7803C-0.00161974 4.63378 1.9477 1.79641 4.93834 0.592222C7.92898 -0.611966 11.3714 0.0543808 13.6594 2.28032C15.1639 3.73625 16.0067 5.71671 16 7.7803C16 10.793 13.8285 13.9546 11.9999 16.0775C10.7814 17.4911 9.44346 18.8032 7.99996 20ZM7.99996 4.44765C6.77506 4.44765 5.6432 5.08285 5.03075 6.11398C4.41829 7.1451 4.41829 8.4155 5.03075 9.44662C5.6432 10.4777 6.77506 11.1129 7.99996 11.1129C9.8935 11.1129 11.4285 9.62087 11.4285 7.7803C11.4285 5.93973 9.8935 4.44765 7.99996 4.44765Z"
    fill="currentColor" />
</svg>