<svg width="16" height="20" viewBox="0 0 16 20" fill="none" xmlns="http://www.w3.org/2000/svg">
  <path fill-rule="evenodd" clip-rule="evenodd"
    d="M8 1.37934C6.2448 1.37934 4.56302 2.06308 3.32422 3.27773C2.08569 4.49212 1.3913 6.13756 1.3913 7.85165C1.3913 10.8236 3.08377 13.5286 4.87026 15.543C5.75469 16.5403 6.64097 17.3443 7.30634 17.8988C7.58161 18.1283 7.81818 18.3142 8 18.4528C8.18181 18.3142 8.41839 18.1283 8.69366 17.8988C9.35903 17.3443 10.2453 16.5403 11.1297 15.543C12.9162 13.5286 14.6087 10.8236 14.6087 7.85165C14.6087 6.13756 13.9143 4.49212 12.6758 3.27773C11.437 2.06308 9.7552 1.37934 8 1.37934ZM8 19.3108C7.60403 19.8779 7.60383 19.8777 7.60361 19.8776L7.60135 19.876L7.59602 19.8723L7.57758 19.8595C7.56189 19.8485 7.53947 19.8327 7.51076 19.8121C7.45336 19.771 7.3708 19.711 7.26666 19.633C7.05846 19.477 6.76364 19.2485 6.41105 18.9547C5.70686 18.3678 4.76705 17.5156 3.82539 16.4538C1.95971 14.3501 0 11.3255 0 7.85165C0 5.76679 0.844744 3.76888 2.34587 2.29701C3.84674 0.825395 5.88073 0 8 0C10.1193 0 12.1533 0.825395 13.6541 2.29701C15.1553 3.76888 16 5.76679 16 7.85165C16 11.3255 14.0403 14.3501 12.1746 16.4538C11.233 17.5156 10.2931 18.3678 9.58895 18.9547C9.23636 19.2485 8.94154 19.477 8.73334 19.633C8.6292 19.711 8.54664 19.771 8.48924 19.8121C8.46053 19.8327 8.43811 19.8485 8.42242 19.8595L8.40398 19.8723L8.39865 19.876L8.39698 19.8772C8.39676 19.8773 8.39597 19.8779 8 19.3108ZM8 19.3108L8.39698 19.8772C8.15876 20.0407 7.84183 20.0411 7.60361 19.8776L8 19.3108ZM8 5.51738C7.2316 5.51738 6.6087 6.13493 6.6087 6.89672C6.6087 7.65851 7.2316 8.27607 8 8.27607C8.7684 8.27607 9.3913 7.65851 9.3913 6.89672C9.3913 6.13493 8.7684 5.51738 8 5.51738ZM5.21739 6.89672C5.21739 5.37314 6.46321 4.13803 8 4.13803C9.53679 4.13803 10.7826 5.37314 10.7826 6.89672C10.7826 8.4203 9.53679 9.65541 8 9.65541C6.46321 9.65541 5.21739 8.4203 5.21739 6.89672Z"
    fill="currentColor" />
</svg>