<svg width="22" height="24" viewBox="0 0 22 24" fill="none" xmlns="http://www.w3.org/2000/svg">
  <path fill-rule="evenodd" clip-rule="evenodd"
    d="M9.86131 0.296478C10.5659 -0.0988252 11.4341 -0.0988264 12.1387 0.296477L11.5693 1.25471L12.1387 0.296478L20.8613 5.19001C21.5659 5.58531 22 6.31586 22 7.10647V16.8935C22 17.6841 21.5659 18.4147 20.8613 18.81L12.1387 23.7035C11.4341 24.0988 10.5659 24.0988 9.86131 23.7035L1.13869 18.81C0.434066 18.4147 0 17.6841 0 16.8935V7.10647C0 6.31586 0.434064 5.58531 1.13869 5.19001L9.86131 0.296478ZM19.7226 7.10647L11 2.21294L2.27737 7.10647V16.8935L11 21.7871L19.7226 16.8935V7.10647ZM10.9999 9.78706C9.74213 9.78706 8.72251 10.7778 8.72251 12C8.72251 13.2222 9.74213 14.2129 10.9999 14.2129C12.2576 14.2129 13.2773 13.2222 13.2773 12C13.2773 10.7778 12.2576 9.78706 10.9999 9.78706ZM6.44514 12C6.44514 9.55565 8.48437 7.57412 10.9999 7.57412C13.5154 7.57412 15.5546 9.55565 15.5546 12C15.5546 14.4443 13.5154 16.4259 10.9999 16.4259C8.48437 16.4259 6.44514 14.4443 6.44514 12Z"
    fill="currentColor" />
</svg>