<svg width="158" height="60" viewBox="0 0 158 60" fill="none" xmlns="http://www.w3.org/2000/svg">
<path d="M83.0418 31.3446C81.9387 30.5782 80.4071 29.7841 78.4881 28.9836C76.5716 28.1732 75.2264 27.5711 74.4898 27.1938C73.7212 26.7995 73.0949 26.3096 72.6292 25.7376C72.1441 25.1434 71.8981 24.3707 71.8981 23.4409C71.8981 22.1442 72.4308 21.1267 73.4818 20.4171C74.4973 19.7316 75.9382 19.3841 77.7645 19.3841C80.1294 19.3841 82.4995 19.9212 84.8156 20.9815V17.1719C83.6431 16.6618 82.4376 16.277 81.2285 16.0279C79.9618 15.7677 78.4881 15.6356 76.8476 15.6356C74.8672 15.6356 73.0961 15.9664 71.5838 16.6185C70.0832 17.2651 68.9037 18.1913 68.0783 19.3714C67.2553 20.546 66.8381 21.9153 66.8381 23.4409C66.8381 25.3997 67.4308 27.0558 68.5997 28.364C69.7879 29.6956 71.7435 30.9257 74.4089 32.0194C76.1898 32.7203 77.5295 33.2947 78.3915 33.7274C79.2867 34.1788 79.9772 34.7132 80.4457 35.3157C80.928 35.9377 81.1725 36.7231 81.1725 37.6493C81.1725 38.9703 80.6417 40.021 79.5955 40.7723C78.5788 41.503 77.0937 41.8735 75.1811 41.8735C73.6963 41.8735 72.1619 41.7017 70.6204 41.3638C69.2259 41.0579 67.8717 40.6077 66.5881 40.0234V43.9664C67.6225 44.4499 68.9384 44.8462 70.5044 45.1449C72.1619 45.4614 73.8616 45.6221 75.5557 45.6221C79.1148 45.6221 81.8327 44.9156 83.6341 43.5221C85.4134 42.1464 86.3157 40.1845 86.3157 37.691C86.3157 36.2388 86.04 34.9944 85.4962 33.9924C84.9504 32.9888 84.1247 32.0975 83.0418 31.3446Z" fill="white"/>
<path d="M96.6555 19.0832C97.3034 18.4763 98.3007 18.1684 99.619 18.1684C100.39 18.1684 101.12 18.2918 101.795 18.5358V14.8776C100.87 14.546 99.7886 14.3778 98.5772 14.3778C96.2986 14.3778 94.4412 15.0093 93.057 16.2549C91.6823 17.4913 90.985 19.3164 90.985 21.6802V44.9927H95.6696V28.8984H99.3217V25.443H95.6696V22.0574C95.6696 20.696 96.0016 19.6952 96.6555 19.0832" fill="white"/>
<path d="M105.575 33.9504L105.586 33.6576C105.643 32.0432 106.24 30.7468 107.353 29.8031C108.455 28.8678 109.975 28.3961 111.869 28.3961C113.787 28.3961 115.325 28.8539 116.441 29.7579C117.571 30.673 118.176 31.9864 118.235 33.6576L118.244 33.9504H105.575ZM117.797 26.122C116.192 25.2553 114.226 24.8146 111.951 24.8146C108.492 24.8146 105.796 25.7583 103.942 27.623C102.091 29.4878 101.15 32.0574 101.15 35.261C101.15 38.5129 102.21 41.077 104.303 42.8819C106.406 44.701 109.317 45.6221 112.951 45.6221C114.403 45.6221 115.878 45.4967 117.343 45.2496C118.71 45.0164 119.857 44.7236 120.753 44.3714V40.9092C119.827 41.2361 118.764 41.503 117.582 41.7021C116.24 41.9267 114.906 42.0405 113.618 42.0405C108.67 42.0405 105.965 40.4487 105.586 37.3046L105.55 36.9861H122.627V34.8401C122.627 32.9131 122.22 31.176 121.412 29.6754C120.609 28.18 119.394 26.9864 117.797 26.122" fill="white"/>
<path d="M153.017 39.5331L152.975 39.6014C152.449 40.4542 151.68 41.1305 150.692 41.6141C149.714 42.0913 148.605 42.3333 147.402 42.3333C146.011 42.3333 144.924 42.0461 144.169 41.48C143.389 40.8973 142.993 40.0167 142.993 38.8651C142.993 36.5057 144.503 35.3117 147.484 35.3117C149.507 35.3117 151.327 35.8774 152.898 36.9976L153.017 37.0829V39.5331ZM155.357 28.18C151.687 25.531 146.155 24.8146 141.776 24.8146C137.67 24.8146 132.552 25.4437 128.905 27.7047L128.85 27.6655C127.948 27.026 126.902 26.6651 125.809 26.6107V44.9937H130.491V34.0416C130.491 32.7159 131.013 31.8722 131.728 31.157C133.483 29.4013 138.922 28.6726 141.776 28.6726C144.629 28.6726 150.041 29.4013 151.796 31.157C152.459 31.8202 152.937 32.5997 153.003 33.7667L152.596 33.5382C150.813 32.5322 148.659 32.0229 146.192 32.0229C143.663 32.0229 141.677 32.6342 140.294 33.8393C138.921 35.0333 138.223 36.7247 138.223 38.8651C138.223 40.9175 138.961 42.5717 140.413 43.7799C141.883 45.0021 143.796 45.6221 146.108 45.6221C147.648 45.6221 148.965 45.4031 150.024 44.9711C151.081 44.5415 152.039 43.9136 152.87 43.1032L153.351 42.6371V44.9937H157.742V34.0416C157.742 31.5731 157.044 29.3985 155.357 28.18" fill="white"/>
<path d="M29.9731 27.2941C31.2417 27.2941 32.2706 28.3286 32.2706 29.6051V41.9404C32.2706 43.2169 31.2417 44.2515 29.9731 44.2515C28.7045 44.2515 27.6756 43.2169 27.6756 41.9404V29.6051C27.6756 28.3286 28.7045 27.2941 29.9731 27.2941Z" fill="white"/>
<path d="M32.8426 18.6348C32.8426 20.229 31.5578 21.521 29.9732 21.521C28.3883 21.521 27.1035 20.229 27.1035 18.6348C27.1035 17.0406 28.3883 15.7486 29.9732 15.7486C31.5578 15.7486 32.8426 17.0406 32.8426 18.6348Z" fill="#47AF04"/>
<g opacity="0.229996">
<g opacity="0.229996">
<path opacity="0.229996" d="M32.8426 2.88627C32.8426 4.4805 31.5578 5.77246 29.9732 5.77246C28.3883 5.77246 27.1035 4.4805 27.1035 2.88627C27.1035 1.29204 28.3883 7.20427e-05 29.9732 7.20427e-05C31.5578 7.20427e-05 32.8426 1.29204 32.8426 2.88627Z" fill="#47AF04"/>
</g>
</g>
<g opacity="0.300003">
<g opacity="0.300003">
<path opacity="0.300003" d="M21.5098 4.08192C22.1542 5.53811 21.5031 7.2446 20.0555 7.89276C18.6078 8.54132 16.9117 7.88602 16.2673 6.42983C15.6225 4.97364 16.2736 3.26755 17.7213 2.61899C19.1689 1.97082 20.8651 2.62573 21.5098 4.08192Z" fill="#47AF04"/>
</g>
</g>
<g opacity="0.350006">
<g opacity="0.350006">
<path opacity="0.350006" d="M11.6404 9.81122C12.8179 10.8779 12.9134 12.703 11.853 13.8874C10.7925 15.0719 8.97812 15.1675 7.80057 14.1008C6.62264 13.0342 6.5276 11.2095 7.58802 10.025C8.64844 8.84017 10.4629 8.74457 11.6404 9.81122Z" fill="#47AF04"/>
</g>
</g>
<g opacity="0.360001">
<g opacity="0.360001">
<path opacity="0.360001" d="M4.94097 19.0833C6.4482 19.576 7.27319 21.2043 6.78301 22.72C6.29361 24.2361 4.67478 25.0659 3.16756 24.5733C1.66033 24.081 0.835344 22.4527 1.32513 20.9362C1.81492 19.4205 3.43375 18.5906 4.94097 19.0833Z" fill="#47AF04"/>
</g>
</g>
<g opacity="0.429993">
<g opacity="0.429993">
<path opacity="0.429993" d="M2.56967 30.2942C4.1459 30.1276 5.55769 31.2775 5.72332 32.863C5.88895 34.4481 4.74572 35.8682 3.16948 36.0352C1.59364 36.2018 0.181456 35.0519 0.0158267 33.4664C-0.149802 31.8809 0.993432 30.4604 2.56967 30.2942Z" fill="#47AF04"/>
</g>
</g>
<g opacity="0.509995">
<g opacity="0.509995">
<path opacity="0.509995" d="M4.93681 41.5063C6.30916 40.709 8.06444 41.1822 8.8567 42.5626C9.64896 43.9434 9.17888 45.7082 7.80614 46.5055C6.43378 47.3025 4.6789 46.8292 3.88664 45.4488C3.09439 44.0684 3.56446 42.3032 4.93681 41.5063Z" fill="#47AF04"/>
</g>
</g>
<g opacity="0.589996">
<g opacity="0.589996">
<path opacity="0.589996" d="M11.6329 50.7804C12.5643 49.4904 14.3591 49.2044 15.6411 50.1417C16.9231 51.0787 17.2075 52.8839 16.2756 54.1735C15.3441 55.4631 13.5498 55.7487 12.2678 54.8118C10.9857 53.8748 10.7014 52.07 11.6329 50.7804Z" fill="#47AF04"/>
</g>
</g>
<g opacity="0.669998">
<g opacity="0.669998">
<path opacity="0.669998" d="M21.5002 56.5131C21.8295 54.9534 23.3533 53.9585 24.9035 54.2902C26.4537 54.621 27.4432 56.1541 27.1135 57.713C26.7842 59.2724 25.2604 60.2676 23.7102 59.9364C22.1604 59.6048 21.171 58.0724 21.5002 56.5131Z" fill="#47AF04"/>
</g>
</g>
<g opacity="0.75">
<g opacity="0.75">
<path opacity="0.75" d="M32.8325 57.7134C32.5032 56.1541 33.4927 54.6214 35.0425 54.2901C36.5927 53.9585 38.1165 54.9538 38.4458 56.5135C38.7754 58.0724 37.786 59.6052 36.2358 59.9364C34.6856 60.2676 33.1618 59.2727 32.8325 57.7134Z" fill="#47AF04"/>
</g>
</g>
<g opacity="0.919998">
<g opacity="0.919998">
<path opacity="0.919998" d="M43.6704 54.1733C42.7389 52.8838 43.0233 51.0785 44.3053 50.1416C45.5874 49.2046 47.3821 49.4902 48.3131 50.7802C49.245 52.0698 48.9607 53.8746 47.6786 54.8116C46.3966 55.7489 44.6019 55.4629 43.6704 54.1733Z" fill="#47AF04"/>
</g>
</g>
<path d="M52.14 46.5054C50.7676 45.708 50.2976 43.9432 51.0898 42.5628C51.8821 41.182 53.637 40.7092 55.0093 41.5061C56.3817 42.303 56.8522 44.0682 56.0595 45.449C55.2672 46.829 53.5124 47.3027 52.14 46.5054Z" fill="#47AF04"/>
<g opacity="0.0500031">
<g opacity="0.0500031">
<path opacity="0.0500031" d="M56.7767 36.0352C55.2005 35.8682 54.0572 34.4481 54.2229 32.863C54.3885 31.2775 55.8003 30.1272 57.3765 30.2942C58.9527 30.4604 60.096 31.8809 59.9303 33.466C59.7647 35.0519 58.3529 36.2018 56.7767 36.0352Z" fill="#47AF04"/>
</g>
</g>
<g opacity="0.100006">
<g opacity="0.100006">
<path opacity="0.100006" d="M56.7788 24.5733C55.2716 25.0659 53.6528 24.2361 53.163 22.72C52.6732 21.2039 53.4982 19.5756 55.0054 19.0833C56.5126 18.5902 58.1314 19.4201 58.6208 20.9362C59.1106 22.4523 58.286 24.0806 56.7788 24.5733Z" fill="#47AF04"/>
</g>
</g>
<g opacity="0.119995">
<g opacity="0.119995">
<path opacity="0.119995" d="M52.1459 14.1014C50.9684 15.168 49.154 15.0724 48.0936 13.8876C47.0331 12.7031 47.1282 10.8784 48.3057 9.81175C49.4837 8.7451 51.2981 8.8403 52.3585 10.0252C53.4189 11.2096 53.3235 13.0347 52.1459 14.1014Z" fill="#47AF04"/>
</g>
</g>
<g opacity="0.169998">
<g opacity="0.169998">
<path opacity="0.169998" d="M43.6792 6.43C43.0344 7.88619 41.3383 8.54109 39.8906 7.89293C38.443 7.24437 37.7919 5.53828 38.4367 4.08209C39.081 2.6259 40.7772 1.9706 42.2248 2.61916C43.6725 3.26732 44.3236 4.97381 43.6792 6.43Z" fill="#47AF04"/>
</g>
</g>
</svg>
